<svg width="28" height="28" viewBox="0 0 28 28" fill="none" xmlns="http://www.w3.org/2000/svg">
<path fill-rule="evenodd" clip-rule="evenodd" d="M27.0937 4.11621C27.2144 4.17422 27.3207 4.25824 27.4051 4.36225C27.4937 4.46422 27.5584 4.58471 27.5945 4.71491C27.6306 4.84511 27.6371 4.98173 27.6136 5.11477L26.0723 12.7217C25.9487 13.3377 25.6157 13.892 25.1298 14.2903C24.6439 14.6886 24.035 14.9064 23.4067 14.9067H21.7838C21.0639 16.9304 19.5751 18.5886 17.6404 19.5216V22.16H10.3871V19.5216C8.45236 18.5886 6.96355 16.9304 6.24362 14.9067H4.6207C3.99239 14.9064 3.38355 14.6886 2.89763 14.2903C2.41172 13.892 2.07868 13.3377 1.95512 12.7217L0.413792 5.11477C0.390285 4.98173 0.39681 4.84511 0.43289 4.71491C0.468969 4.58471 0.533691 4.46422 0.622324 4.36225C0.706692 4.25824 0.813053 4.17422 0.933763 4.11621C1.05447 4.05821 1.18653 4.02767 1.32045 4.02678H4.43937L4.33057 3.52812C4.2714 3.13829 4.29769 2.74025 4.40762 2.36159C4.51756 1.98292 4.70851 1.63269 4.96724 1.33515C5.22597 1.03761 5.54629 0.799882 5.90602 0.638432C6.26575 0.476982 6.65628 0.395673 7.05055 0.400138H20.9406C21.3349 0.395673 21.7254 0.476982 22.0851 0.638432C22.4449 0.799882 22.7652 1.03761 23.0239 1.33515C23.2826 1.63269 23.4736 1.98292 23.5835 2.36159C23.6935 2.74025 23.7197 3.13829 23.6606 3.52812L23.588 4.02678H26.707C26.8409 4.02767 26.9729 4.05821 27.0937 4.11621ZM2.42658 5.8401L3.73217 12.3681C3.77397 12.5729 3.88525 12.7569 4.04716 12.8891C4.20908 13.0213 4.41169 13.0934 4.6207 13.0934H5.79936L4.71136 5.8401H2.42658ZM23.9732 12.8949C24.1389 12.7624 24.2529 12.5759 24.2952 12.3681L25.5827 5.8401H23.2979L22.2099 13.0934H23.3886C23.6007 13.0977 23.8076 13.0274 23.9732 12.8949ZM6.19829 23.9733H21.8291L22.9806 26.2853C23.0501 26.4233 23.0832 26.5768 23.0768 26.7313C23.0703 26.8857 23.0245 27.0359 22.9436 27.1676C22.8628 27.2993 22.7496 27.4082 22.6148 27.4839C22.4801 27.5595 22.3282 27.5995 22.1737 27.6H5.85376C5.6992 27.5995 5.54734 27.5595 5.41258 27.4839C5.27782 27.4082 5.16464 27.2993 5.08379 27.1676C5.00294 27.0359 4.9571 26.8857 4.95063 26.7313C4.94417 26.5768 4.97728 26.4233 5.04683 26.2853L6.19829 23.9733ZM13.9949 14.0044C16.2482 14.0044 18.0749 12.1777 18.0749 9.92438C18.0749 7.67106 16.2482 5.84438 13.9949 5.84438C11.7416 5.84438 9.9149 7.67106 9.9149 9.92438C9.9149 12.1777 11.7416 14.0044 13.9949 14.0044Z" fill="white"/>
</svg>
