<svg width="24" height="28" viewBox="0 0 24 28" fill="none" xmlns="http://www.w3.org/2000/svg">
<path d="M12.3903 27.6C18.7961 27.6 23.9903 22.3802 23.9903 15.9429C17.5846 15.9429 12.3903 21.1627 12.3903 27.6ZM4.1479 12.3809C4.1479 14.1684 5.59145 15.619 7.37012 15.619C8.04679 15.619 8.67834 15.4053 9.1939 15.0491L9.16812 15.2952C9.16812 17.0827 10.6117 18.5333 12.3903 18.5333C14.169 18.5333 15.6126 17.0827 15.6126 15.2952L15.5868 15.0491C16.1088 15.4118 16.7339 15.619 17.4106 15.619C19.1892 15.619 20.6328 14.1684 20.6328 12.3809C20.6328 11.0922 19.8788 9.98476 18.7897 9.46666C19.8723 8.94856 20.6328 7.84114 20.6328 6.55237C20.6328 4.76495 19.1892 3.31428 17.4106 3.31428C16.7339 3.31428 16.1023 3.52799 15.5868 3.88418L15.6126 3.63809C15.6126 1.85066 14.169 0.399994 12.3903 0.399994C10.6117 0.399994 9.16812 1.85066 9.16812 3.63809L9.1939 3.88418C8.6719 3.52152 8.04679 3.31428 7.37012 3.31428C5.59145 3.31428 4.1479 4.76495 4.1479 6.55237C4.1479 7.84114 4.9019 8.94856 5.99101 9.46666C4.9019 9.98476 4.1479 11.0922 4.1479 12.3809ZM12.3903 6.22857C14.169 6.22857 15.6126 7.67923 15.6126 9.46666C15.6126 11.2541 14.169 12.7048 12.3903 12.7048C10.6117 12.7048 9.16812 11.2541 9.16812 9.46666C9.16812 7.67923 10.6117 6.22857 12.3903 6.22857ZM0.790344 15.9429C0.790344 22.3802 5.98457 27.6 12.3903 27.6C12.3903 21.1627 7.19612 15.9429 0.790344 15.9429Z" fill="white"/>
</svg>
