<svg width="32" height="29" viewBox="0 0 32 29" fill="none" xmlns="http://www.w3.org/2000/svg">
<path d="M28.6889 22.1583C28.3821 22.1583 28.1333 22.407 28.1333 22.7139V24.7472C28.1333 25.6677 27.3871 26.4139 26.4667 26.4139H3.77778C2.8573 26.4139 2.11111 25.6677 2.11111 24.7472V6.96943C2.11111 6.04895 2.8573 5.30276 3.77778 5.30276H9.23333C9.54016 5.30276 9.78889 5.05403 9.78889 4.74721C9.78889 4.44038 9.54016 4.19165 9.23333 4.19165H3.77778C2.24365 4.19165 1 5.4353 1 6.96943V24.7472C1 26.2813 2.24365 27.525 3.77778 27.525H26.4667C27.9983 27.5189 29.2384 26.2788 29.2444 24.7472V22.7139C29.2444 22.407 28.9957 22.1583 28.6889 22.1583Z" fill="white" stroke="white"/>
<path d="M29.3333 12.8695H29.2444V6.96949C29.2383 5.4379 27.9982 4.19781 26.4666 4.19172C26.1598 4.19172 25.9111 4.44045 25.9111 4.74727C25.9111 5.0541 26.1598 5.30283 26.4666 5.30283C27.3871 5.30283 28.1333 6.04902 28.1333 6.96949V7.28061H27.5111L24.1777 3.94727L21.7555 1.52505C21.6512 1.41988 21.5092 1.36072 21.3611 1.36072C21.2129 1.36072 21.071 1.41988 20.9666 1.52505L18.0333 4.45838L15.0889 1.52505C14.8691 1.31196 14.5198 1.31196 14.3 1.52505L8.54441 7.28061H6.55553C6.2487 7.28061 5.99997 7.52934 5.99997 7.83616C5.99997 8.14299 6.2487 8.39172 6.55553 8.39172H28.1333V12.8362H24.8889C22.7411 12.8362 21 14.5773 21 16.7251V17.1473C21 19.295 22.7411 21.0362 24.8889 21.0362H29.3333C30.2538 21.0362 31 20.29 31 19.3695V14.5362C31 13.6157 30.2538 12.8695 29.3333 12.8695ZM21.3666 2.70283L22.9777 4.31394C22.0034 4.96857 20.7299 4.96857 19.7555 4.31394L21.3666 2.70283ZM18.9666 5.10283C20.3838 6.18455 22.3495 6.18455 23.7666 5.10283L25.9889 7.32505H20.8444L18.8111 5.24727L18.9666 5.10283ZM12.5222 7.32505L15.8555 3.99172L16.6333 4.76949L14.0777 7.28061L12.5222 7.32505ZM17.4666 5.51394L19.3333 7.28061H15.6444L17.4666 5.51394ZM14.7 2.70283L15.1111 3.11394L10.9444 7.28061H10.1222L14.7 2.70283ZM29.8889 19.3695C29.8889 19.6763 29.6401 19.9251 29.3333 19.9251H24.8889C24.1521 19.9251 23.4456 19.6324 22.9247 19.1115C22.4037 18.5905 22.1111 17.884 22.1111 17.1473V16.7251C22.1111 15.1909 23.3547 13.9473 24.8889 13.9473H29.3333C29.6401 13.9473 29.8889 14.196 29.8889 14.5028V19.3695Z" fill="white" stroke="white"/>
<path d="M24.9779 18.0806C25.5915 18.0806 26.089 17.5831 26.089 16.9694C26.089 16.3558 25.5915 15.8583 24.9779 15.8583C24.3642 15.8583 23.8668 16.3558 23.8668 16.9694C23.8668 17.5831 24.3642 18.0806 24.9779 18.0806Z" fill="white" stroke="white"/>
</svg>
