<svg width="34" height="37" viewBox="0 0 34 37" fill="none" xmlns="http://www.w3.org/2000/svg">
<path fill-rule="evenodd" clip-rule="evenodd" d="M18.8122 23.6125C18.563 22.8016 17.8511 22.2776 17 22.2776C16.1489 22.2776 15.437 22.8016 15.1877 23.6125L12.607 31.9929C12.2642 33.1064 11.4135 33.8543 10.4909 33.8543C9.51486 33.8543 8.64833 33.0481 8.33423 31.849L3.38261 12.9291C2.69591 10.306 3.07215 7.53747 4.4157 5.33292C5.95862 2.80046 9.2224 1.83134 12.0087 3.07964L15.2275 4.52174C15.5665 4.70948 17.6404 5.83229 20.8444 6.96494C20.9297 6.99514 21.0171 7.0095 21.1024 7.0095C21.4196 7.0095 21.7166 6.81282 21.8292 6.49777C21.9711 6.09774 21.7614 5.65874 21.3604 5.51686C20.3912 5.17417 19.5258 4.83042 18.7863 4.51552L21.9912 3.07958C24.777 1.83127 28.0407 2.79985 29.5842 5.33286C30.9278 7.53747 31.304 10.306 30.6173 12.929L25.6657 31.8489C25.3516 33.048 24.485 33.8542 23.509 33.8542C22.5864 33.8542 21.7358 33.1064 21.3929 31.9928L18.8122 23.6125ZM15.8329 3.10839L12.6413 1.67773C9.14732 0.112364 5.04369 1.34065 3.09723 4.53535C1.53941 7.09288 1.09893 10.2937 1.89092 13.3169L6.8422 32.2367C7.33559 34.1231 8.80248 35.391 10.4909 35.391C12.0955 35.391 13.5383 34.2062 14.0805 32.4441L16.6613 24.0637C16.7286 23.8466 16.9023 23.8143 17 23.8143C17.0976 23.8143 17.2713 23.8466 17.3387 24.0637L19.9194 32.4441C20.4616 34.2062 21.9043 35.3909 23.5089 35.3909C25.1974 35.3909 26.6643 34.1232 27.1577 32.2367L32.1089 13.3169C32.9009 10.2937 32.4604 7.09288 30.9026 4.53535C28.9556 1.34072 24.853 0.111286 21.3584 1.67773L18.1224 3.12831C17.7693 3.28634 17.3868 3.36803 16.9999 3.36803C16.628 3.36803 16.2602 3.29256 15.9186 3.14638C15.8906 3.13183 15.8619 3.11919 15.8329 3.10839Z" fill="white"/>
<path d="M18.8122 23.6125L17.8563 23.9062L17.8565 23.9068L18.8122 23.6125ZM15.1877 23.6125L16.1434 23.9068L16.1436 23.9063L15.1877 23.6125ZM12.607 31.9929L11.6513 31.6986L11.6512 31.6987L12.607 31.9929ZM8.33423 31.849L7.36682 32.1022L7.36687 32.1024L8.33423 31.849ZM3.38261 12.9291L4.35003 12.6759L4.35001 12.6758L3.38261 12.9291ZM4.4157 5.33292L5.26961 5.85334L5.26968 5.85322L4.4157 5.33292ZM12.0087 3.07964L12.4176 2.16705L12.4176 2.16705L12.0087 3.07964ZM15.2275 4.52174L15.7121 3.64697L15.675 3.62646L15.6364 3.60914L15.2275 4.52174ZM20.8444 6.96494L21.178 6.02223L21.1777 6.02212L20.8444 6.96494ZM21.8292 6.49777L22.7709 6.83424L22.7716 6.83205L21.8292 6.49777ZM21.3604 5.51686L21.6941 4.57415L21.6938 4.57406L21.3604 5.51686ZM18.7863 4.51552L18.3774 3.60293L16.2886 4.53881L18.3945 5.43557L18.7863 4.51552ZM21.9912 3.07958L22.4001 3.99217L22.4001 3.99215L21.9912 3.07958ZM29.5842 5.33286L28.7303 5.85322L28.7303 5.85326L29.5842 5.33286ZM30.6173 12.929L29.6499 12.6758L29.6499 12.6758L30.6173 12.929ZM25.6657 31.8489L26.6331 32.1023L26.6331 32.1021L25.6657 31.8489ZM21.3929 31.9928L22.3487 31.6986L22.3487 31.6985L21.3929 31.9928ZM12.6413 1.67773L13.0504 0.765216L13.0502 0.765131L12.6413 1.67773ZM15.8329 3.10839L15.4239 4.0209L15.4536 4.0342L15.484 4.04555L15.8329 3.10839ZM3.09723 4.53535L2.24325 4.01504L2.24318 4.01514L3.09723 4.53535ZM1.89092 13.3169L2.85834 13.0637L2.85827 13.0634L1.89092 13.3169ZM6.8422 32.2367L7.80966 31.9836L7.80962 31.9835L6.8422 32.2367ZM14.0805 32.4441L13.1248 32.1498L13.1248 32.15L14.0805 32.4441ZM16.6613 24.0637L15.7061 23.7674L15.7055 23.7694L16.6613 24.0637ZM17.3387 24.0637L18.2944 23.7694L18.2938 23.7676L17.3387 24.0637ZM19.9194 32.4441L20.8751 32.15L20.8751 32.1498L19.9194 32.4441ZM23.5089 35.3909L23.5089 36.3909H23.5089V35.3909ZM27.1577 32.2367L26.1902 31.9835L26.1902 31.9837L27.1577 32.2367ZM32.1089 13.3169L31.1415 13.0634L31.1414 13.0637L32.1089 13.3169ZM30.9026 4.53535L31.7566 4.01514L31.7565 4.01492L30.9026 4.53535ZM21.3584 1.67773L20.9494 0.765212L20.9494 0.765216L21.3584 1.67773ZM18.1224 3.12831L18.5309 4.04108L18.5315 4.04082L18.1224 3.12831ZM15.9186 3.14638L15.459 4.03446L15.4915 4.0513L15.5252 4.06572L15.9186 3.14638ZM17 23.2776C17.4146 23.2776 17.7369 23.5176 17.8563 23.9062L19.7681 23.3187C19.3892 22.0856 18.2877 21.2776 17 21.2776V23.2776ZM16.1436 23.9063C16.263 23.5176 16.5854 23.2776 17 23.2776V21.2776C15.7123 21.2776 14.6109 22.0856 14.2318 23.3186L16.1436 23.9063ZM13.5627 32.2872L16.1434 23.9068L14.232 23.3182L11.6513 31.6986L13.5627 32.2872ZM10.4909 34.8543C11.9855 34.8543 13.1347 33.6774 13.5627 32.2871L11.6512 31.6987C11.3936 32.5355 10.8415 32.8543 10.4909 32.8543V34.8543ZM7.36687 32.1024C7.75472 33.583 8.91492 34.8543 10.4909 34.8543V32.8543C10.1148 32.8543 9.54194 32.5131 9.3016 31.5956L7.36687 32.1024ZM2.41519 13.1823L7.36682 32.1022L9.30165 31.5958L4.35003 12.6759L2.41519 13.1823ZM3.56178 4.81251C2.06915 7.26168 1.66366 10.3116 2.41521 13.1824L4.35001 12.6758C3.72816 10.3005 4.07515 7.81326 5.26961 5.85334L3.56178 4.81251ZM12.4176 2.16705C9.19228 0.722076 5.37834 1.83092 3.56171 4.81263L5.26968 5.85322C6.5389 3.77 9.25252 2.94061 11.5998 3.99224L12.4176 2.16705ZM15.6364 3.60914L12.4176 2.16705L11.5998 3.99224L14.8187 5.43434L15.6364 3.60914ZM21.1777 6.02212C18.0392 4.91264 16.0167 3.81574 15.7121 3.64697L14.743 5.39651C15.1162 5.60322 17.2415 6.75194 20.5111 7.90777L21.1777 6.02212ZM21.1024 6.0095C21.1292 6.0095 21.1548 6.01401 21.178 6.02223L20.5108 7.90766C20.7047 7.97627 20.905 8.0095 21.1024 8.0095V6.0095ZM20.8875 6.16131C20.9217 6.06542 21.011 6.0095 21.1024 6.0095V8.0095C21.8281 8.0095 22.5115 7.56021 22.7709 6.83424L20.8875 6.16131ZM21.0268 6.45957C20.9083 6.41761 20.8434 6.28567 20.8867 6.1635L22.7716 6.83205C23.0987 5.9098 22.6144 4.89987 21.6941 4.57415L21.0268 6.45957ZM18.3945 5.43557C19.1513 5.75783 20.0362 6.10932 21.0271 6.45966L21.6938 4.57406C20.7462 4.23901 19.9003 3.90301 19.1781 3.59546L18.3945 5.43557ZM21.5823 2.16699L18.3774 3.60293L19.1952 5.42811L22.4001 3.99217L21.5823 2.16699ZM30.4382 4.81249C28.6209 1.83032 24.8071 0.721988 21.5823 2.167L22.4001 3.99215C24.747 2.94056 27.4605 3.76939 28.7303 5.85322L30.4382 4.81249ZM31.5847 13.1823C32.3363 10.3115 31.9308 7.26169 30.4381 4.81246L28.7303 5.85326C29.9248 7.81326 30.2718 10.3004 29.6499 12.6758L31.5847 13.1823ZM26.6331 32.1021L31.5847 13.1822L29.6499 12.6758L24.6983 31.5957L26.6331 32.1021ZM23.509 34.8542C25.0849 34.8542 26.2452 33.583 26.6331 32.1023L24.6983 31.5955C24.458 32.513 23.8851 32.8542 23.509 32.8542V34.8542ZM20.4372 32.287C20.8652 33.6774 22.0144 34.8542 23.509 34.8542V32.8542C23.1584 32.8542 22.6063 32.5354 22.3487 31.6986L20.4372 32.287ZM17.8565 23.9068L20.4372 32.2871L22.3487 31.6985L19.7679 23.3182L17.8565 23.9068ZM12.2323 2.59024L15.4239 4.0209L16.242 2.19588L13.0504 0.765216L12.2323 2.59024ZM3.9512 5.05566C5.62612 2.30664 9.18132 1.22337 12.2325 2.59033L13.0502 0.765131C9.11331 -0.998643 4.46126 0.374655 2.24325 4.01504L3.9512 5.05566ZM2.85827 13.0634C2.13179 10.2903 2.54126 7.37043 3.95127 5.05555L2.24318 4.01514C0.537565 6.81533 0.066076 10.2971 0.92356 13.5703L2.85827 13.0634ZM7.80962 31.9835L2.85834 13.0637L0.923495 13.57L5.87478 32.4898L7.80962 31.9835ZM10.4909 34.391C9.34713 34.391 8.21238 33.5234 7.80966 31.9836L5.87474 32.4897C6.4588 34.7229 8.25783 36.391 10.4909 36.391V34.391ZM13.1248 32.15C12.6858 33.5765 11.5745 34.391 10.4909 34.391V36.391C12.6166 36.391 14.3908 34.8358 15.0363 32.7383L13.1248 32.15ZM15.7055 23.7694L13.1248 32.1498L15.0362 32.7384L17.617 24.358L15.7055 23.7694ZM17 22.8143C16.8543 22.8143 16.6012 22.8363 16.3375 22.9812C16.0441 23.1425 15.8157 23.4141 15.7061 23.7674L17.6164 24.3599C17.5741 24.4961 17.4662 24.643 17.301 24.7339C17.1653 24.8084 17.048 24.8143 17 24.8143V22.8143ZM18.2938 23.7676C18.1843 23.4143 17.9559 23.1426 17.6625 22.9813C17.3988 22.8363 17.1457 22.8143 17 22.8143V24.8143C16.9519 24.8143 16.8345 24.8084 16.6989 24.7338C16.5335 24.6429 16.4257 24.496 16.3835 24.3599L18.2938 23.7676ZM20.8751 32.1498L18.2944 23.7694L16.3829 24.358L18.9637 32.7384L20.8751 32.1498ZM23.5089 34.3909C22.4253 34.3909 21.3141 33.5765 20.8751 32.15L18.9636 32.7383C19.6091 34.8358 21.3833 36.3909 23.5089 36.3909L23.5089 34.3909ZM26.1902 31.9837C25.7875 33.5235 24.6528 34.3909 23.5089 34.3909V36.3909C25.742 36.3909 27.541 34.723 28.1251 32.4897L26.1902 31.9837ZM31.1414 13.0637L26.1902 31.9835L28.1251 32.4898L33.0763 13.57L31.1414 13.0637ZM30.0485 5.05555C31.4585 7.37043 31.868 10.2903 31.1415 13.0634L33.0762 13.5703C33.9337 10.2971 33.4622 6.81533 31.7566 4.01514L30.0485 5.05555ZM21.7675 2.59025C24.8188 1.2225 28.373 2.30641 30.0487 5.05577L31.7565 4.01492C29.5381 0.37502 24.8873 -0.999933 20.9494 0.765212L21.7675 2.59025ZM18.5315 4.04082L21.7675 2.59024L20.9494 0.765216L17.7134 2.21579L18.5315 4.04082ZM16.9999 4.36803C17.5276 4.36803 18.0493 4.25661 18.5309 4.04108L17.7139 2.21554C17.4893 2.31607 17.246 2.36803 16.9999 2.36803V4.36803ZM15.5252 4.06572C15.9911 4.2651 16.4927 4.36803 16.9999 4.36803V2.36803C16.7634 2.36803 16.5294 2.32002 16.3121 2.22704L15.5252 4.06572ZM15.484 4.04555C15.4753 4.0423 15.4669 4.03858 15.459 4.03446L16.3783 2.2583C16.3142 2.22509 16.2486 2.19607 16.1818 2.17123L15.484 4.04555Z" fill="white"/>
</svg>
