<svg width="227" height="24" viewBox="0 0 227 24" fill="none" xmlns="http://www.w3.org/2000/svg">
<path d="M83.2614 1.6058C83.1599 1.57155 83.0759 1.53285 83.0583 1.53309C82.9683 1.54173 82.8783 1.55624 82.8059 1.57145C82.8555 1.59195 82.9393 1.63196 82.9744 1.63315C83.0645 1.62853 83.1544 1.61514 83.2614 1.6058ZM225.454 23.869C220.123 23.2064 212.783 22.5409 207.478 22.1896C197.963 21.5651 191.7 21.5388 181.2 20.6037C180.815 20.5692 180.429 20.5415 180.076 20.5376C178.488 20.5182 176.948 20.5324 175.345 20.4924C173.301 20.4403 171.209 20.3443 169.15 20.2752C168.587 20.2552 168.072 20.2689 167.526 20.2583C166.786 20.2424 166.077 20.2528 165.271 20.0522C165.118 20.0129 164.84 19.9708 164.716 19.979C162.865 20.0753 160.575 19.7355 158.686 19.8455C151.422 20.2555 135.154 19.3015 125.12 19.5698C124.392 19.5886 123.615 19.586 122.841 19.5569C120.168 19.4509 117.643 19.4318 115.44 19.657C114.473 19.7553 113.255 19.7421 112.138 19.7685C111.607 19.7813 111.143 19.803 111.046 20.0242C111.691 20.0935 112.266 20.1554 113.086 20.2434C112.827 20.3328 112.746 20.4132 112.532 20.434C112.119 20.4756 111.641 20.4888 111.179 20.5053C108.552 20.5958 105.925 20.6843 103.28 20.7695C88.1352 21.2745 83.258 20.6474 71.0877 22.7756C70.5275 22.8727 70.0177 22.99 69.4904 23.1008C69.3831 23.1183 69.3252 23.1467 69.2179 23.1642C67.5816 23.5189 65.534 23.2191 64.4655 22.4464C63.6234 21.8311 62.7817 21.2125 62.5233 20.6042C62.3749 20.2371 61.8423 19.8411 61.5537 19.4617C59.9724 17.2842 60.7078 16.887 66.1679 16.5078C67.6131 16.3999 69.2093 16.3532 70.5716 16.2031C73.6374 15.8592 76.6205 15.4768 79.6023 15.0944C82.0998 14.7774 84.5116 14.4303 86.9741 14.1059C88.1957 13.9476 89.4681 13.8119 90.7237 13.6689C90.9034 13.6476 91.1003 13.629 91.3115 13.6315C91.3277 13.6316 108.817 11.7166 109.145 11.6778C111.029 11.458 112.861 11.2204 114.729 10.9976C125.859 9.67964 136.538 8.31858 148.001 7.1572C148.413 7.1182 148.807 7.07243 149.488 7.00006C148.879 6.92342 148.62 6.87494 148.391 6.86422C117.092 5.34745 66.6163 3.40011 40.445 5.45486C33.7476 5.99403 26.7945 6.18934 20.2167 6.92089C16.9036 7.29066 6.36447 8.88014 2.17805 8.39553C-0.588406 8.0758 1.36499 6.16594 2.17793 5.87031C2.93584 5.60842 3.727 5.35641 4.55309 5.11317C4.88452 5.00684 4.81094 4.89172 4.31589 4.75168C3.9059 4.63621 3.44139 4.53383 2.96155 4.41299C3.25466 4.05648 4.14305 3.87868 5.16563 3.76071C9.69679 3.221 14.2931 2.82956 18.9522 2.35975C19.3453 2.32389 19.7216 2.28783 20.1142 2.25534C21.0081 2.17971 21.9008 2.10109 22.8112 2.03456C23.1853 2.00887 23.6087 2.01312 24.106 2.00047C24.282 2.14844 24.4121 2.23475 24.4384 2.31199C24.5184 2.51649 24.9741 2.6837 25.5853 2.74696C26.8238 2.87491 28.1275 3.05613 29.0908 2.84291C29.9628 2.65543 31.0043 2.52749 32.2625 2.49811C33.1134 2.47844 33.9004 2.41028 34.6852 2.34998C35.5778 2.28389 36.4357 2.20202 37.383 2.12172C36.7388 1.90588 36.324 1.97548 35.8978 1.98854C35.2412 2.00548 34.6526 2.05377 33.998 2.05519C33.5912 2.05359 33.1222 1.98827 32.5973 1.94463C33.1525 1.46716 33.1357 1.45973 34.1159 1.39839C35.1491 1.33042 36.2172 1.27767 37.0717 1.22882C37.8933 1.44171 38.5094 1.59928 39.2456 1.7902C39.1114 1.87005 38.9759 1.96645 38.7267 2.11944C39.8432 2.09559 40.8324 2.10303 41.7042 2.05123C42.7548 1.99096 43.7059 1.88072 44.689 1.79048C45.6095 1.72732 56.8839 1.42771 57.9824 1.64163C59.6556 1.96324 60.0213 1.57444 61.4193 1.72343C62.4651 1.8355 63.2332 1.77692 64.0681 1.73815C65.402 1.674 66.8644 1.71518 68.3416 1.7734C69.4501 1.81812 70.4577 1.81438 70.6771 1.47159C71.2389 1.50183 71.764 1.54264 72.258 1.55086C72.5408 1.55605 72.9668 1.53918 72.9911 1.48084C73.107 1.26623 73.6893 1.27262 74.3382 1.31649C74.4442 1.17494 74.1904 1.07913 73.8008 1.08692C73.1808 1.09934 72.5808 1.09318 71.7182 0.920921C71.7988 0.845932 71.7773 0.736984 71.9568 0.711872C73.1793 0.551423 74.5682 0.475574 76.054 0.45869C78.0195 0.43566 80.049 0.45813 82.1423 0.540696C83.7071 0.602361 85.1804 0.55729 86.7157 0.578939C87.7915 0.59329 88.9182 0.633263 90.0257 0.681631C90.377 0.697535 90.7917 0.775772 91.1729 0.839537C92.5749 1.07418 92.7181 1.20263 91.8442 1.39993C91.5708 1.45997 91.35 1.53367 91.0211 1.62035C91.9827 1.84669 92.3439 1.64244 92.9611 1.65873C93.5603 1.67163 94.1605 1.67668 94.6982 1.61836C94.2138 1.53876 93.7288 1.45966 93.1395 1.36248C93.4313 1.15138 93.7987 1.03855 94.4808 0.958689C96.7239 0.695991 99.5264 0.89881 102.152 0.962714C105.73 1.0499 109.338 1.17317 112.946 1.28756C113.616 1.30788 114.197 1.31888 114.314 1.09772C114.34 1.02442 114.802 1.01768 115.124 0.974874C115.495 1.11909 115.742 1.26606 116.088 1.32761C116.468 1.39662 116.927 1.39962 117.349 1.41425C119.286 1.47752 121.207 1.51955 123.16 1.59867C124.777 1.66408 126.443 1.7772 128.076 1.85947C128.884 1.89961 129.575 1.89022 130.005 1.7081C130.21 1.62156 130.777 1.60988 131.253 1.61366C132.72 1.61975 134.218 1.64442 135.735 1.67436C136.67 1.69097 137.638 1.72702 138.712 1.75913C138.409 1.63946 138.19 1.55382 137.886 1.43789C138.929 1.30284 140.178 1.34157 141.426 1.40189C143.992 1.52435 146.589 1.67024 149.187 1.81746C150.047 1.86733 150.919 1.95597 151.778 2.0123C163.086 2.74716 174.677 3.2782 186.262 5.11792C187.353 5.29136 188.464 5.45789 189.574 5.62304C190.841 5.81046 191.829 6.10908 192.724 6.44298C192.943 6.52358 193.139 6.65529 193.095 6.72118C192.377 7.74791 194.196 9.57274 193.783 10.5229C193.759 10.5724 193.838 10.6475 193.746 10.6745C188.931 12.1744 190.795 11.1545 182.13 10.9797C176.026 10.8532 170.508 11.2746 165.001 11.5502C164.307 11.5864 163.663 11.6524 162.984 11.7023C152.695 12.4823 142.818 13.2927 132.582 14.0928C131.885 14.1467 130.974 14.088 130.227 14.1242C128.959 14.19 124.149 14.7144 122.967 14.5093C121.807 14.311 121.248 14.402 120.684 14.6655C121.759 14.7006 122.619 14.7444 123.431 14.7492C127.112 14.7738 130.56 14.7577 134.344 14.8349C136.425 14.8748 138.555 14.9462 140.669 15.0036C150.648 15.275 162.546 15.5946 172.262 16.0766C173.209 16.1244 174.109 16.1399 175.058 16.1872C184.49 16.6387 194.431 17.0136 203.993 17.7331C210.492 18.2209 218.089 18.6092 224.602 19.0025C225.076 19.0315 225.562 19.108 226.049 19.1637C225.85 20.732 225.652 22.3003 225.454 23.869Z" fill="#FF8412"/>
</svg>
