<svg width="30" height="38" viewBox="0 0 30 38" fill="none" xmlns="http://www.w3.org/2000/svg">
<path d="M28.0713 25.5106C29.3937 22.8298 29.316 19.6128 27.7601 15.9362L27.5268 15.3234L26.0487 15.783L24.9597 14.2511L25.9709 12.7957L23.1705 6.74468C25.1152 5.51915 25.8154 3.60426 25.8931 1.99574C25.8931 1.76596 25.8154 1.45957 25.582 1.30638C25.4264 1.15319 25.1152 1 24.8819 1H12.3575C6.13421 1 1 5.97872 1 12.1064V17.1617C1 22.7532 4.65618 25.2809 6.13421 26.0468L5.43409 28.9574C4.96735 29.417 3.80048 30.566 3.56711 32.2511C2.7892 32.7872 1 34.3957 1 36.234V37H24.104V34.5489L24.0262 34.3191C23.326 33.2468 22.3925 32.3277 21.2257 31.4085L21.4591 30.9489C22.5481 30.6426 26.2821 29.1106 28.0713 25.5106ZM15.0802 17.7745L20.2144 18.6936C20.4478 19.5362 20.6811 21.834 17.6473 24.2085C16.4804 23.6723 12.9798 22.1404 10.7239 20.9915C8.77911 19.9957 8.54574 18.5404 8.54574 18.1574C9.01248 16.7787 9.55702 16.4723 10.0238 16.3957C11.2684 16.2426 12.3575 17.4681 12.3575 17.4681L12.5909 17.7745H15.0802ZM8.07899 20.8383C8.54574 21.3745 9.16807 21.9106 10.0238 22.3702C12.4353 23.5957 16.2471 25.2809 17.1805 25.6638L20.0588 30.3362L19.981 30.4894C15.6247 27.5787 9.7126 25.5872 7.84562 25.0511C7.84562 23.366 7.92341 21.9872 8.07899 20.8383ZM26.6711 24.8213C25.3486 27.5787 22.5481 28.9574 21.3813 29.417L18.8142 25.2809C22.0814 22.6766 22.0814 19.9191 21.7702 18.5404L26.5933 17.1617C27.6823 20.0723 27.6823 22.6766 26.6711 24.8213ZM24.1817 12.6426L23.0149 14.2511L24.4151 16.2426L20.6811 17.3149L15.8581 16.3957C15.9359 9.65532 17.2583 8.73617 21.1479 7.58723C21.3813 7.51064 21.5368 7.51064 21.7702 7.43404L24.1817 12.6426ZM2.55582 17.1617V12.1064C2.55582 6.82128 6.98991 2.53191 12.3575 2.53191H24.2595C24.104 3.52766 23.4816 5.36596 20.8367 6.13192C16.1693 7.43404 14.5356 9.11915 14.4579 16.2426H13.3688C12.8242 15.7064 11.5018 14.7106 9.86818 14.9404C7.45666 15.3234 6.44538 18.0043 6.36758 24.4383C4.88955 23.5191 2.55582 21.3745 2.55582 17.1617ZM4.73397 33.3234L5.04514 33.0936V32.7106C5.12293 31.4851 5.90084 30.6426 6.28979 30.183C7.69003 30.7191 12.4353 32.7106 16.2471 35.3915H2.7892C3.17815 34.5489 4.26723 33.6298 4.73397 33.3234ZM22.6259 35.4681H18.892C14.769 32.0979 9.01248 29.6468 7.1455 28.8809L7.69003 26.6596L7.92341 26.7362V26.6596C10.8795 27.5787 19.7477 30.7191 22.7037 34.9319V35.4681H22.6259Z" fill="white" stroke="white"/>
</svg>
