<svg width="36" height="46" viewBox="0 0 36 46" fill="none" xmlns="http://www.w3.org/2000/svg">
<path d="M15.3805 38.3854L15.0964 38.3512L15.3551 36.1533C15.4322 35.5009 15.3661 34.8394 15.1616 34.2153C14.957 33.5913 14.6188 33.0197 14.1709 32.5407L6.52783 24.3524L7.56178 19.1277C7.61867 18.8401 7.61733 18.5439 7.55784 18.2568C7.49835 17.9697 7.38193 17.6976 7.21549 17.4566C7.04906 17.2156 6.83603 17.0107 6.58908 16.8541C6.34213 16.6975 6.06631 16.5923 5.77805 16.5449C5.66097 16.5258 5.54256 16.5161 5.42395 16.5159C4.96009 16.5147 4.50805 16.6627 4.13421 16.9384C3.76038 17.2141 3.48446 17.6029 3.34698 18.0476L1.26384 24.7155C0.886552 25.9279 0.914567 27.2309 1.34361 28.4259L2.86886 32.6561C3.23485 33.6707 3.87545 34.5627 4.71867 35.2319L5.66943 35.9863C5.87062 36.1469 6.03792 36.3461 6.16158 36.5723C6.28525 36.7985 6.36279 37.0472 6.38969 37.3038C5.90557 37.2591 5.42316 37.4056 5.04484 37.7121C4.66651 38.0186 4.42204 38.461 4.3633 38.9455L4.22892 40.07L4.22875 40.0705V40.0711L3.89049 42.9011C3.87108 43.0703 3.91922 43.2404 4.0244 43.3741C4.12958 43.5079 4.28323 43.5943 4.45174 43.6146C4.62025 43.6349 4.78991 43.5874 4.92361 43.4825C5.05731 43.3775 5.14418 43.2237 5.16521 43.0546L5.42592 40.8731L15.5186 42.1615L15.2664 44.2712C15.2553 44.3557 15.261 44.4416 15.2832 44.524C15.3054 44.6063 15.3436 44.6833 15.3957 44.7507C15.4478 44.818 15.5127 44.8744 15.5866 44.9164C15.6605 44.9584 15.742 44.9852 15.8263 44.9954C15.9107 45.0056 15.9962 44.9988 16.0779 44.9756C16.1596 44.9523 16.2359 44.913 16.3024 44.86C16.3689 44.8069 16.4242 44.7411 16.4652 44.6664C16.5061 44.5917 16.5319 44.5096 16.5411 44.4248L16.8684 41.6862L16.8687 41.6842L16.8689 41.6817L17.0139 40.4693C17.043 40.2248 17.0238 39.977 16.9574 39.7399C16.8911 39.5029 16.7789 39.2813 16.6272 39.0878C16.4755 38.8943 16.2874 38.7326 16.0735 38.6121C15.8596 38.4916 15.6242 38.4146 15.3806 38.3854H15.3805ZM5.51502 34.221C4.85909 33.7004 4.36074 33.0065 4.07596 32.2173L2.55071 27.987C2.21705 27.0578 2.19526 26.0445 2.48866 25.1017L4.57197 18.4335C4.62833 18.251 4.7415 18.0915 4.89484 17.9783C5.04819 17.8652 5.23363 17.8043 5.42395 17.8048C5.47326 17.8049 5.52249 17.8089 5.57117 17.8168C5.68942 17.8364 5.80255 17.8796 5.90383 17.9439C6.00511 18.0082 6.09246 18.0923 6.16069 18.1912C6.22891 18.2902 6.27663 18.4018 6.30099 18.5196C6.32534 18.6374 6.32585 18.7589 6.30247 18.8769L5.25859 24.1516C4.68727 24.5468 4.28106 25.1394 4.1176 25.8162C3.95414 26.4931 4.04491 27.2066 4.37254 27.8205L6.19137 31.236C6.27165 31.3867 6.40829 31.4992 6.57123 31.5488C6.65191 31.5734 6.73662 31.5818 6.82052 31.5735C6.90442 31.5651 6.98587 31.5403 7.06021 31.5004C7.13456 31.4605 7.20035 31.4063 7.25383 31.3409C7.30731 31.2755 7.34742 31.2001 7.37188 31.1191C7.39635 31.0381 7.40468 30.9531 7.39641 30.8689C7.38814 30.7846 7.36342 30.7029 7.32367 30.6282L5.50467 27.2125C5.38449 26.9892 5.32174 26.7393 5.3221 26.4856C5.32161 26.0839 5.47674 25.6978 5.75468 25.4089L13.234 33.4219C13.5539 33.7641 13.7955 34.1723 13.9416 34.6181C14.0878 35.0639 14.135 35.5363 14.08 36.0023L13.8216 38.1977L7.68332 37.4583C7.67586 36.9798 7.56277 36.5089 7.35221 36.0795C7.14164 35.6501 6.83884 35.273 6.46561 34.9752L5.51502 34.221ZM15.7392 40.3157L15.6715 40.8817L5.57887 39.5932L5.63793 39.099C5.657 38.9448 5.73616 38.8045 5.85806 38.7088C5.97997 38.6131 6.13469 38.5698 6.28835 38.5884L6.94244 38.6672H6.94287L15.2276 39.6651C15.3814 39.6833 15.5216 39.762 15.6176 39.884C15.7135 40.006 15.7572 40.1613 15.7392 40.3157ZM24.5675 20.1723C26.3465 17.6403 27.2867 14.7486 27.2867 11.8094V5.03324C27.2867 4.8793 27.2318 4.73045 27.132 4.61362C27.0321 4.49678 26.8939 4.41969 26.7424 4.39629C25.1067 4.1452 23.5072 3.6967 21.9786 3.06054C20.7306 2.54166 19.5416 1.88975 18.4322 1.11602C18.3213 1.03825 18.1887 0.99768 18.0534 1.0001C17.9181 1.00253 17.787 1.04782 17.6789 1.12951C16.8654 1.74211 15.997 2.27753 15.0848 2.72888C13.2568 3.62559 11.2929 4.21075 9.27354 4.46039C9.11869 4.48035 8.97639 4.55626 8.87326 4.67392C8.77014 4.79158 8.71325 4.94293 8.71325 5.09966V11.8095C8.71325 14.7486 9.65348 17.6403 11.4325 20.1723C12.9739 22.3659 15.1374 24.2751 17.689 25.6935C17.7842 25.7464 17.8912 25.7742 18 25.7742C18.1088 25.7742 18.2158 25.7464 18.3109 25.6935C20.8626 24.2751 23.0261 22.3659 24.5675 20.1723ZM18 24.3893C15.7522 23.0851 13.8494 21.376 12.4816 19.4293C10.8562 17.116 9.99713 14.481 9.99713 11.8095V5.65919C11.9617 5.3605 13.8692 4.76197 15.6536 3.88437C16.4988 3.4657 17.3096 2.98034 18.0783 2.43287C19.1539 3.14611 20.2948 3.75474 21.4855 4.25048C22.9391 4.85589 24.4537 5.30134 26.0028 5.57902V11.8095C26.0028 14.481 25.1437 17.1161 23.5184 19.4293C22.1506 21.376 20.2478 23.0851 18 24.3893ZM24.719 7.14058C24.719 6.99684 24.6711 6.85723 24.583 6.74394C24.4949 6.63065 24.3715 6.55018 24.2326 6.51532C23.1274 6.23828 22.0443 5.87896 20.9923 5.44034C20.1126 5.07325 19.2578 4.64886 18.4333 4.16989C18.3331 4.11158 18.219 4.08157 18.1032 4.08305C17.9873 4.08454 17.874 4.11745 17.7753 4.17831C17.271 4.48914 16.7528 4.77663 16.2223 5.03985C14.8067 5.73863 13.3155 6.27082 11.7781 6.62582C11.6368 6.65867 11.5107 6.73861 11.4205 6.85261C11.3302 6.96661 11.281 7.10794 11.281 7.25357V11.8095C11.281 14.2136 12.059 16.5916 13.5308 18.6864C14.5902 20.1942 15.9737 21.5273 17.6429 22.6488C17.7486 22.7198 17.8728 22.7577 18 22.7577C18.1271 22.7577 18.2514 22.7198 18.3571 22.6488C20.0263 21.5273 21.4098 20.1942 22.4692 18.6864C23.941 16.5916 24.719 14.2136 24.719 11.8095V7.14058ZM23.4351 11.8095C23.4351 13.9463 22.7384 16.0673 21.42 17.9436C20.4774 19.2572 19.3212 20.4022 18 21.3306C16.6787 20.4022 15.5226 19.2571 14.58 17.9434C13.2617 16.0672 12.5649 13.9462 12.5649 11.8094V7.75991C14.024 7.38719 15.4403 6.8628 16.7911 6.19526C17.2429 5.97114 17.6863 5.73051 18.1206 5.47385C18.8909 5.90433 19.685 6.29046 20.499 6.63037C21.4552 7.02912 22.4359 7.36583 23.4351 7.63841V11.8095ZM34.7363 24.716L32.653 18.0473C32.4861 17.5135 32.1218 17.0641 31.6349 16.7918C31.148 16.5194 30.5756 16.4448 30.0356 16.5833C29.4955 16.7218 29.0289 17.0628 28.7318 17.5362C28.4346 18.0096 28.3296 18.5793 28.4382 19.1281L29.4721 24.3524L21.8291 32.5407C21.3811 33.0197 21.043 33.5913 20.8384 34.2155C20.6338 34.8396 20.5678 35.5011 20.6449 36.1536L20.9036 38.3512L20.6194 38.3854C20.3759 38.4146 20.1405 38.4916 19.9266 38.6121C19.7127 38.7326 19.5245 38.8942 19.3729 39.0877C19.2212 39.2812 19.109 39.5028 19.0427 39.7399C18.9763 39.9769 18.9571 40.2247 18.9862 40.4692L19.1311 41.6818L19.1313 41.6842L19.1316 41.6862L19.4589 44.4248C19.4687 44.509 19.495 44.5904 19.5363 44.6644C19.5775 44.7384 19.6329 44.8035 19.6992 44.8559C19.7656 44.9084 19.8415 44.9472 19.9228 44.9701C20.0041 44.9931 20.0891 44.9997 20.173 44.9896C20.2568 44.9795 20.3379 44.9528 20.4114 44.9112C20.485 44.8697 20.5497 44.8139 20.6018 44.7472C20.6539 44.6804 20.6923 44.604 20.7149 44.5224C20.7376 44.4407 20.7439 44.3553 20.7336 44.2712L20.4815 42.1615L30.5741 40.873L30.8348 43.0546C30.8558 43.2237 30.9427 43.3775 31.0764 43.4825C31.2101 43.5874 31.3797 43.6349 31.5482 43.6146C31.7167 43.5943 31.8704 43.5079 31.9756 43.3741C32.0807 43.2404 32.1289 43.0703 32.1095 42.9011L31.7712 40.0711V40.0705L31.7711 40.07L31.6368 38.9455C31.5778 38.4611 31.3332 38.0188 30.9549 37.7124C30.5767 37.4059 30.0944 37.2594 29.6103 37.3038C29.6372 37.0472 29.7147 36.7986 29.8383 36.5724C29.9619 36.3462 30.1292 36.147 30.3304 35.9864L31.2816 35.2317C32.1247 34.5625 32.7652 33.6705 33.1312 32.6559L34.6563 28.4261C35.0854 27.2313 35.1135 25.9283 34.7363 24.716ZM29.7116 38.5884C29.8653 38.5699 30.02 38.6132 30.1418 38.7089C30.2637 38.8046 30.3429 38.9449 30.362 39.099L30.4211 39.5932L20.3285 40.8817L20.2609 40.3157C20.2428 40.1613 20.2865 40.0061 20.3825 39.884C20.4784 39.762 20.6186 39.6833 20.7724 39.6651L29.0571 38.6672H29.0575L29.7116 38.5884ZM33.4492 27.9872L31.9239 32.217C31.6393 33.0062 31.141 33.7001 30.4852 34.2207L29.5343 34.9753C29.1611 35.2731 28.8583 35.6502 28.6477 36.0796C28.4372 36.5089 28.3241 36.9798 28.3166 37.4583L22.1783 38.1977L21.9198 36.0026C21.8648 35.5365 21.9121 35.064 22.0583 34.6182C22.2044 34.1724 22.446 33.7641 22.766 33.4219L30.2453 25.4089C30.5233 25.6978 30.6784 26.0839 30.6779 26.4856C30.6782 26.7395 30.6154 26.9894 30.4951 27.2128L28.6763 30.6282C28.6366 30.7029 28.6118 30.7846 28.6036 30.8689C28.5953 30.9531 28.6036 31.0381 28.6281 31.1191C28.6526 31.2001 28.6927 31.2754 28.7462 31.3409C28.7997 31.4063 28.8655 31.4605 28.9398 31.5004C29.0141 31.5403 29.0956 31.5651 29.1795 31.5734C29.2634 31.5817 29.3481 31.5733 29.4288 31.5488C29.5094 31.5242 29.5845 31.4839 29.6497 31.4302C29.7149 31.3766 29.7689 31.3105 29.8086 31.2359L31.6273 27.8208C31.955 27.2069 32.0458 26.4933 31.8824 25.8164C31.719 25.1395 31.3127 24.5468 30.7414 24.1516L29.6976 18.8773C29.6742 18.7594 29.6746 18.6381 29.6989 18.5204C29.7231 18.4027 29.7707 18.2912 29.8387 18.1923C29.9067 18.0934 29.9938 18.0093 30.0948 17.9448C30.1959 17.8804 30.3088 17.837 30.4268 17.8172C30.4762 17.8091 30.526 17.8049 30.576 17.8048C30.7663 17.8043 30.9518 17.8651 31.1051 17.9782C31.2584 18.0914 31.3716 18.2509 31.428 18.4333L33.5115 25.1022C33.8047 26.045 33.7829 27.0581 33.4492 27.9872Z" fill="white" stroke="white"/>
</svg>
